<svg width="42" height="42" viewBox="0 0 42 42" fill="none" xmlns="http://www.w3.org/2000/svg">
<path fill-rule="evenodd" clip-rule="evenodd" d="M21 42C32.598 42 42 32.598 42 21C42 9.40202 32.598 0 21 0C9.40202 0 0 9.40202 0 21C0 32.598 9.40202 42 21 42Z" fill="white"/>
<path fill-rule="evenodd" clip-rule="evenodd" d="M28.8822 15.5307L29.9947 29.1076C30.0334 29.594 29.8588 30.0785 29.5155 30.4366C29.1723 30.7946 28.6857 31 28.1806 31H13.8193C13.3142 31 12.8276 30.7946 12.4844 30.4365C12.1412 30.0784 11.9665 29.594 12.0053 29.1074L13.1178 15.5307C13.1419 15.2253 13.4055 14.9894 13.7225 14.9894H16.7548V13.9297C16.7548 12.3143 18.115 11 19.7871 11H22.2129C23.8849 11 25.2452 12.3143 25.2452 13.9297V14.9894H28.2775C28.5945 14.9894 28.858 15.2253 28.8822 15.5307ZM19.8 12C18.8075 12 18 13.0093 18 14.25V15H24V14.25C24 13.0093 23.1925 12 22.2 12H19.8Z" fill="#0AD4FA"/>
</svg>
