<svg width="20" height="20" viewBox="0 0 20 20" fill="none" xmlns="http://www.w3.org/2000/svg">
<path fill-rule="evenodd" clip-rule="evenodd" d="M10 20C15.5228 20 20 15.5228 20 10C20 4.47715 15.5228 0 10 0C4.47715 0 0 4.47715 0 10C0 15.5228 4.47715 20 10 20Z" fill="url(#paint0_radial)"/>
<path fill-rule="evenodd" clip-rule="evenodd" d="M2.38086 10C2.38086 5.80509 5.80437 2.38098 9.99991 2.38098C14.1948 2.38098 17.619 5.80449 17.619 10C17.619 14.195 14.1954 17.6191 9.99991 17.6191C5.80497 17.6191 2.38086 14.1956 2.38086 10ZM3.27372 10C3.27372 13.7089 6.29107 16.7262 9.99991 16.7262C13.7087 16.7262 16.7261 13.7089 16.7261 10C16.7261 6.29119 13.7087 3.27384 9.99991 3.27384C6.29107 3.27384 3.27372 6.29119 3.27372 10Z" fill="#F8B013"/>
<path fill-rule="evenodd" clip-rule="evenodd" d="M4.07422 10C4.07422 6.74584 6.74503 4.0741 10.0001 4.0741C13.2543 4.0741 15.9261 6.74491 15.9261 10C15.9261 13.2542 13.2553 15.9259 10.0001 15.9259C6.74596 15.9259 4.07422 13.2551 4.07422 10ZM4.98125 10C4.98125 12.7675 7.23271 15.0189 10.0001 15.0189C12.7676 15.0189 15.019 12.7675 15.019 10C15.019 7.23258 12.7676 4.98113 10.0001 4.98113C7.23271 4.98113 4.98125 7.23258 4.98125 10Z" fill="#F8B013"/>
<defs>
<radialGradient id="paint0_radial" cx="0" cy="0" r="1" gradientUnits="userSpaceOnUse" gradientTransform="translate(10 10) rotate(-90) scale(13.7257)">
<stop stop-color="#FFCF00"/>
<stop offset="1" stop-color="#F7AE15"/>
</radialGradient>
</defs>
</svg>
